<svg width="24" height="24" viewBox="0 0 24 24" fill="none" xmlns="http://www.w3.org/2000/svg">
<g clip-path="url(#clip0_19596_52021)">
<path d="M24 12C24 18.6274 18.6274 24 12 24C5.37258 24 0 18.6274 0 12C0 5.37258 5.37258 0 12 0C18.6274 0 24 5.37258 24 12Z" fill="black"/>
<path fill-rule="evenodd" clip-rule="evenodd" d="M24 12C24 18.6274 18.6274 24 12 24C7.01625 24 2.74209 20.9619 0.928572 16.6366L3.42059 15.9688C3.51431 15.9436 3.59713 15.8883 3.6562 15.8113C3.71526 15.7343 3.74727 15.64 3.74725 15.5429V12.7215C3.74847 12.6496 3.73241 12.5785 3.70042 12.5141C3.66843 12.4498 3.62144 12.394 3.56342 12.3516C3.5105 12.3134 3.44975 12.2874 3.38556 12.2755C3.32136 12.2636 3.25533 12.2661 3.19223 12.2828L0.326718 13.0504C0.232989 13.0755 0.150171 13.1309 0.0911082 13.2078C0.081342 13.2206 0.0723155 13.2338 0.0640512 13.2474C0.0217028 12.8374 0 12.4212 0 12C0 5.37258 5.37258 0 12 0C18.6274 0 24 5.37258 24 12ZM15.8197 1.40565L7.82112 3.54789C7.72739 3.57303 7.64457 3.62838 7.58551 3.70538C7.52645 3.78238 7.49444 3.87671 7.49445 3.97375V7.04602C7.49447 7.14306 7.46246 7.23739 7.4034 7.31439C7.34433 7.39139 7.26152 7.44674 7.16779 7.47188L4.07392 8.30111C3.98019 8.32624 3.89737 8.3816 3.83831 8.4586C3.77925 8.53559 3.74724 8.62993 3.74725 8.72697V11.5484C3.74622 11.6202 3.76236 11.6913 3.79434 11.7556C3.82631 11.8199 3.8732 11.8757 3.93108 11.9183C3.98414 11.9562 4.04496 11.9819 4.10915 11.9935C4.17334 12.0051 4.2393 12.0023 4.30228 11.9853L10.1309 10.4249L8.82759 12.4912L9.98542 14.2102L4.07392 15.7942C3.98019 15.8193 3.89737 15.8747 3.83831 15.9517C3.77925 16.0287 3.74724 16.123 3.74725 16.2201V19.0415C3.74622 19.1133 3.76236 19.1844 3.79434 19.2487C3.82631 19.313 3.8732 19.3688 3.93108 19.4113C3.98414 19.4493 4.04496 19.475 4.10915 19.4866C4.17334 19.4981 4.2393 19.4953 4.30228 19.4784L6.93943 18.773C7.0024 18.756 7.06836 18.7532 7.13255 18.7648C7.19674 18.7764 7.25756 18.8021 7.31062 18.84C7.36856 18.8825 7.41549 18.9383 7.44747 19.0026C7.47945 19.067 7.49556 19.138 7.49445 19.2099V21.7893C7.49335 21.8611 7.50946 21.9322 7.54144 21.9965C7.57342 22.0609 7.62035 22.1167 7.67829 22.1592C7.73135 22.1971 7.79217 22.2228 7.85636 22.2344C7.92054 22.2459 7.98651 22.2431 8.04948 22.2262L14.2631 20.5612L15.8362 22.8967L22.8448 12.4912L15.8362 1.37952L15.8197 1.40565Z" fill="#00806E"/>
<path fill-rule="evenodd" clip-rule="evenodd" d="M21.2119 12.211L15.8174 3.64648L10.431 12.198L15.8362 14.6009L21.2119 12.211ZM20.5081 13.656L16.0463 15.6396L15.8362 15.733L15.6261 15.6396L11.1106 13.6322L15.8174 20.6298L20.5081 13.656Z" fill="#FF7B7B"/>
</g>
<defs>
<clipPath id="clip0_19596_52021">
<rect width="24" height="24" fill="white"/>
</clipPath>
</defs>
</svg>
