<svg width="24" height="24" viewBox="0 0 24 24" fill="none" xmlns="http://www.w3.org/2000/svg">
<g clip-path="url(#clip0_19596_51950)">
<path d="M24 12C24 18.6274 18.6274 24 12 24C5.37258 24 0 18.6274 0 12C0 5.37258 5.37258 0 12 0C18.6274 0 24 5.37258 24 12Z" fill="black"/>
<path fill-rule="evenodd" clip-rule="evenodd" d="M12 24C18.6274 24 24 18.6274 24 12C24 5.37258 18.6274 0 12 0C5.37258 0 0 5.37258 0 12C0 12.4212 0.0217028 12.8374 0.0640511 13.2474C0.0723154 13.2338 0.0813419 13.2206 0.0911082 13.2078C0.150171 13.1309 0.232989 13.0755 0.326718 13.0504L3.19223 12.2828C3.25533 12.2661 3.32136 12.2636 3.38556 12.2755C3.44975 12.2874 3.5105 12.3134 3.56342 12.3516C3.62144 12.394 3.66843 12.4498 3.70042 12.5141C3.73241 12.5785 3.74847 12.6496 3.74725 12.7215V15.5429C3.74727 15.64 3.71526 15.7343 3.6562 15.8113C3.59713 15.8883 3.51431 15.9436 3.42059 15.9688L0.928571 16.6366C2.74209 20.9619 7.01625 24 12 24ZM7.82112 3.54789L16.0468 1.34483V20.0833L8.04948 22.2262C7.98651 22.2431 7.92054 22.2459 7.85636 22.2344C7.79217 22.2228 7.73135 22.1971 7.67829 22.1592C7.62035 22.1167 7.57342 22.0609 7.54144 21.9965C7.50946 21.9322 7.49335 21.8611 7.49445 21.7893V19.2099C7.49556 19.138 7.47945 19.067 7.44747 19.0026C7.41549 18.9383 7.36856 18.8825 7.31062 18.84C7.25756 18.8021 7.19674 18.7764 7.13255 18.7648C7.06836 18.7532 7.0024 18.756 6.93943 18.773L4.30228 19.4784C4.2393 19.4953 4.17334 19.4981 4.10915 19.4866C4.04496 19.475 3.98414 19.4493 3.93108 19.4113C3.8732 19.3688 3.82631 19.313 3.79434 19.2487C3.76236 19.1844 3.74622 19.1133 3.74725 19.0415V16.2201C3.74724 16.123 3.77925 16.0287 3.83831 15.9517C3.89737 15.8747 3.98019 15.8193 4.07392 15.7942L10.915 13.9611C11.0087 13.936 11.0915 13.8807 11.1506 13.8037C11.2097 13.7267 11.2417 13.6323 11.2417 13.5353V10.713C11.2434 10.6444 11.2291 10.5764 11.1999 10.5143C11.1708 10.4523 11.1275 10.3979 11.0736 10.3555C11.0197 10.313 10.9567 10.2838 10.8895 10.27C10.8223 10.2562 10.7529 10.2583 10.6866 10.2761L4.30228 11.9853C4.2393 12.0023 4.17334 12.0051 4.10915 11.9935C4.04496 11.9819 3.98414 11.9562 3.93108 11.9183C3.8732 11.8757 3.82631 11.8199 3.79434 11.7556C3.76236 11.6913 3.74622 11.6202 3.74725 11.5484V8.72697C3.74724 8.62993 3.77925 8.53559 3.83831 8.4586C3.89737 8.3816 3.98019 8.32624 4.07392 8.30111L7.16779 7.47188C7.26152 7.44674 7.34433 7.39138 7.4034 7.31439C7.46246 7.23739 7.49447 7.14306 7.49445 7.04602V3.97375C7.49444 3.87671 7.52645 3.78238 7.58551 3.70538C7.64457 3.62838 7.72739 3.57302 7.82112 3.54789Z" fill="#00806E"/>
<path fill-rule="evenodd" clip-rule="evenodd" d="M13.4584 4.15897V3.10715L16.0128 2.41382V4.15897C17.1105 4.34171 18.0394 4.74938 18.7994 5.38196C19.5734 6.01454 20.0647 6.81448 20.2758 7.71416L17.6213 8.43668C17.2173 7.75767 16.66 7.30172 15.9494 7.06885V11.0752C16.8361 11.3564 17.582 11.6586 18.1872 11.9819C18.8064 12.2912 19.3201 12.7269 19.7282 13.2892C20.1364 13.8515 20.3405 14.5544 20.3405 15.3979C20.3405 16.6911 19.9323 17.7243 19.116 18.4975C18.3138 19.2566 17.2794 19.7275 16.0128 19.9103V20.8664L13.4584 21.5597V19.9103C12.2762 19.7416 11.2488 19.3128 10.3762 18.624C9.50756 17.9243 8.91087 17.0225 8.58618 15.9188L11.2185 15.2043C11.4442 15.6089 11.6983 15.9476 11.9806 16.2202C12.4029 16.6279 12.9165 16.909 13.5217 17.0637V13.0362C13.3024 12.9678 13.0915 12.8985 12.8889 12.8284L12.8201 12.8044C12.2192 12.5939 11.6931 12.376 11.2418 12.1506C10.6366 11.8273 10.1299 11.3845 9.72181 10.8222C9.31367 10.2599 9.1096 9.54295 9.1096 8.67139C9.1096 7.40622 9.51774 6.38706 10.334 5.61391C11.1503 4.84075 12.1918 4.35577 13.4584 4.15897ZM11.9173 8.54487C11.9173 8.95254 12.051 9.28991 12.3184 9.557C12.5999 9.82409 13.001 10.0701 13.5217 10.295V6.94233C13.0291 7.02667 12.6351 7.20942 12.3395 7.49057C12.058 7.77172 11.9173 8.12315 11.9173 8.54487ZM15.9494 17.148C16.4561 17.0496 16.8431 16.8739 17.1105 16.6208C17.392 16.3538 17.5327 16.0093 17.5327 15.5876C17.5327 15.18 17.399 14.8426 17.1316 14.5755C16.8642 14.2943 16.4702 14.0413 15.9494 13.8164V17.148Z" fill="#FF7B7B"/>
<path fill-rule="evenodd" clip-rule="evenodd" d="M12.424 2.31595L17.0473 1.06104V3.33157C17.9486 3.58779 18.7574 4.00181 19.4577 4.58381C20.4029 5.35757 21.0192 6.35352 21.283 7.47775L21.5112 8.44997L17.1343 9.64127L16.984 9.38856V10.3329C17.6094 10.5584 18.1705 10.801 18.6624 11.0629C19.4252 11.4463 20.063 11.9891 20.5655 12.6815C21.1273 13.4555 21.375 14.3837 21.375 15.3978C21.375 16.9284 20.8816 18.25 19.8275 19.2485C19.0536 19.9807 18.1168 20.4772 17.0473 20.7563V21.6574L12.424 22.9123V20.7581C11.4312 20.5027 10.5308 20.0638 9.73532 19.4359L9.73132 19.4328L9.72735 19.4296C8.6891 18.5932 7.97599 17.5098 7.59381 16.2106L7.29565 15.1971L11.7281 13.994L12.122 14.7003C12.2404 14.9124 12.3627 15.0926 12.4873 15.2448V13.7838L12.479 13.781C11.8472 13.5596 11.2784 13.3251 10.7796 13.076L10.7669 13.0696L10.7544 13.0629C10.0092 12.6649 9.38361 12.1171 8.88467 11.4298C8.31887 10.6503 8.07517 9.70508 8.07517 8.67131C8.07517 7.16123 8.57333 5.85669 9.62269 4.86277C10.406 4.12083 11.3487 3.61237 12.424 3.32142V2.31595ZM13.4584 4.15888C12.1918 4.35569 11.1504 4.84067 10.3341 5.61382C9.5178 6.38698 9.10966 7.40614 9.10966 8.67131C9.10966 9.54286 9.31373 10.2598 9.72186 10.8221C10.13 11.3844 10.6367 11.8272 11.2418 12.1505C11.6932 12.3759 12.2193 12.5939 12.8201 12.8043L12.889 12.8283C13.0916 12.8984 13.3025 12.9677 13.5218 13.0361V17.0636C13.1407 16.9662 12.7958 16.8186 12.4873 16.6209C12.3059 16.5047 12.137 16.3711 11.9807 16.2201C11.6983 15.9475 11.4443 15.6088 11.2186 15.2042L8.58624 15.9187C8.68693 16.261 8.81379 16.5839 8.9668 16.8873C9.30718 17.5623 9.77701 18.1412 10.3763 18.6239C11.2489 19.3127 12.2763 19.7415 13.4584 19.9102V21.5596L16.0128 20.8663V19.9102C17.2795 19.7274 18.3139 19.2565 19.1161 18.4974C19.9324 17.7243 20.3405 16.691 20.3405 15.3978C20.3405 14.5543 20.1364 13.8515 19.7283 13.2892C19.3202 12.7269 18.8065 12.2911 18.1872 11.9818C17.5821 11.6585 16.8361 11.3563 15.9495 11.0751V7.06876C16.3408 7.19701 16.6856 7.39292 16.984 7.65649C17.2274 7.8715 17.4398 8.13154 17.6213 8.4366L20.2759 7.71407C20.2528 7.61547 20.2263 7.51806 20.1964 7.42194C20.1232 7.18643 20.0298 6.95864 19.9161 6.73989C19.6528 6.23335 19.2808 5.77525 18.7994 5.38188C18.0395 4.74929 17.1106 4.34163 16.0128 4.15888V2.41374L13.4584 3.10707V4.15888ZM15.9495 17.1479C16.3812 17.0641 16.726 16.9241 16.984 16.728C17.0288 16.694 17.071 16.6582 17.1106 16.6208C17.3921 16.3537 17.5328 16.0093 17.5328 15.5875C17.5328 15.1799 17.3991 14.8425 17.1317 14.5754C17.0861 14.5275 17.0369 14.4804 16.984 14.4342C16.7263 14.2089 16.3815 14.0029 15.9495 13.8163V17.1479ZM13.5218 10.2949C13.0976 10.1117 12.7527 9.91447 12.4873 9.70325C12.4269 9.6552 12.3706 9.60642 12.3185 9.55692C12.0511 9.28983 11.9174 8.95245 11.9174 8.54479C11.9174 8.12307 12.0581 7.77163 12.3396 7.49049C12.3864 7.44599 12.4356 7.40397 12.4873 7.3644C12.7623 7.15396 13.1071 7.01324 13.5218 6.94225V10.2949Z" fill="black"/>
</g>
<defs>
<clipPath id="clip0_19596_51950">
<rect width="24" height="24" fill="white"/>
</clipPath>
</defs>
</svg>
