<svg width="1200" height="1201" viewBox="0 0 1200 1201" fill="none" xmlns="http://www.w3.org/2000/svg">
<path d="M1164.1 742.102C1086.1 1054.8 769.4 1245.2 456.6 1167.2C144 1089.2 -46.4002 772.502 31.5998 459.702C109.6 147.002 426.3 -43.3979 739 34.6021C1051.7 112.602 1242.1 429.402 1164.1 742.102Z" fill="#6CBC51"/>
<path d="M438.2 538.302L396.3 706.202C393.1 714.102 385.1 725.902 366.9 721.402C367.5 722.302 320.3 709.802 320.3 709.802L288.5 783.102L371.8 803.902C387.3 807.802 402.5 811.902 417.5 815.702L391 922.102L455 938.102L481.3 832.802C498.8 837.502 515.7 841.902 532.3 846.002L506.1 950.802L570.1 966.802L596.6 860.602C705.8 881.302 787.9 872.902 822.5 774.102C850.4 694.602 821.1 648.702 763.7 618.802C805.5 609.102 837.1 581.602 845.5 524.802C857.1 447.102 798 405.402 717.1 377.502L743.3 272.302L679.3 256.302L653.8 358.702C637 354.502 619.7 350.502 602.5 346.602L628.2 243.502L564.2 227.502L537.9 332.702C524 329.502 408.7 300.702 408.7 300.702L391.7 369.102C391.7 369.102 439.2 380.002 438.2 380.702C464.1 387.202 468.8 404.302 468 418.002L438 538.302H438.2ZM699.3 730.002C679.5 809.502 545.6 766.502 502.2 755.802L537.4 614.802C580.8 625.602 720 647.102 699.4 730.002H699.3ZM719.1 523.602C701 595.902 589.6 559.202 553.4 550.202L585.3 422.302C621.5 431.302 737.9 448.102 719.1 523.602Z" fill="white"/>
</svg>
