<svg width="100" height="100" viewBox="0 0 100 100" fill="none" xmlns="http://www.w3.org/2000/svg">
<g clip-path="url(#clip0_27226_2909)">
<path d="M99.0196 50C99.0196 77.0725 77.0725 99.0196 50 99.0196C22.9272 99.0196 0.980347 77.0725 0.980347 50C0.980347 22.9272 22.9272 0.980377 50 0.980377C77.0725 0.980377 99.0196 22.9272 99.0196 50Z" fill="white"/>
<path d="M20.4645 39.0067C14.3263 55.2853 22.7925 73.6779 39.3014 79.5966C39.9364 80.0201 40.5713 80.8652 40.5713 81.4995V84.4593C40.5713 84.8824 40.5714 85.0936 40.3595 85.3049C40.1482 86.1505 39.3014 86.573 38.4546 86.1505C26.6023 82.3451 17.5011 73.2544 13.6913 61.4162C7.34169 41.3325 18.3478 19.98 38.4546 13.6378C38.6665 13.4268 39.0896 13.4268 39.3014 13.4268C40.1482 13.6378 40.5713 14.2721 40.5713 15.1178V18.0774C40.5713 19.1347 40.1482 19.769 39.3014 20.1916C30.6239 23.3627 23.6393 30.1276 20.4645 39.0067Z" fill="url(#paint0_linear_27226_2909)"/>
<path d="M59.8319 14.4836C60.0432 13.6378 60.8902 13.2152 61.7368 13.6378C73.3775 17.4432 82.6902 26.5338 86.5 38.584C92.85 58.6676 81.8436 80.0201 61.7368 86.3623C61.525 86.573 61.102 86.573 60.8902 86.573C60.0432 86.3623 59.6201 85.7279 59.6201 84.8824V81.9225C59.6201 80.8652 60.0432 80.2309 60.8902 79.8083C69.5677 76.6373 76.552 69.8726 79.727 60.9931C85.8652 44.7147 77.399 26.3223 60.8902 20.4032C60.2549 19.98 59.6201 19.1348 59.6201 18.289V15.3295C59.6201 14.9063 59.6201 14.6952 59.8319 14.4836Z" fill="url(#paint1_linear_27226_2909)"/>
<path fill-rule="evenodd" clip-rule="evenodd" d="M50 0C22.3858 0 0 22.3858 0 50C0 77.6142 22.3858 100 50 100C77.6142 100 100 77.6142 100 50C100 22.3858 77.6142 0 50 0ZM1.96078 50C1.96078 23.4687 23.4687 1.96078 50 1.96078C76.5314 1.96078 98.0392 23.4687 98.0392 50C98.0392 76.5314 76.5314 98.0392 50 98.0392C23.4687 98.0392 1.96078 76.5314 1.96078 50Z" fill="url(#paint2_linear_27226_2909)"/>
<path d="M36.7188 57.9505L43.2675 53.3779C44.7151 55.5147 46.5074 56.8245 48.6673 57.3529V52.5275C47.7482 52.252 46.9899 52.0221 46.4155 51.8152C45.8181 51.6083 45.1057 51.3329 44.2785 50.9882C42.6011 50.2985 41.705 49.7471 40.5101 48.7132C38.7638 47.2656 37.9366 45.3814 37.8447 42.5781C37.8447 40.8088 38.3502 39.2004 39.3842 37.7757C40.3952 36.3511 41.705 35.2481 43.3364 34.4669C44.9679 33.6857 46.7372 33.2261 48.6673 33.0882V29.4118H51.6775V33.1342C55.9971 33.6167 59.4441 35.8686 62.0402 39.8897L55.8133 44.2096C54.8025 42.5552 53.4236 41.4522 51.6775 40.9007V45.5882C54.5495 46.4154 56.4799 47.1507 58.4789 48.2767C59.4667 48.8511 60.2941 49.4485 60.9147 50.1147C62.1554 51.4476 62.9368 53.3319 62.9368 55.5608C62.9368 58.4329 61.5579 60.8917 59.3981 62.4309C57.2383 63.9936 54.5265 64.9127 51.6775 65.1196V68.75H48.6673V65.0966C43.4054 64.6137 39.2234 62.0863 36.7188 57.9505ZM53.4236 56.7554C54.2971 56.0431 54.251 55.0093 53.5157 54.3887C53.1481 54.0902 52.5275 53.7686 51.6775 53.4696V57.4907C52.3897 57.3529 52.9873 57.1 53.4236 56.7554ZM48.6673 44.6231V40.6939C47.4954 40.9467 46.7142 41.5671 46.7142 42.5552C46.7142 43.3594 47.3576 44.0487 48.6673 44.6231Z" fill="url(#paint3_linear_27226_2909)"/>
</g>
<defs>
<linearGradient id="paint0_linear_27226_2909" x1="104.412" y1="-7.45403" x2="56.2" y2="90.7676" gradientUnits="userSpaceOnUse">
<stop stop-color="#FFE47C"/>
<stop offset="0.526042" stop-color="#FF43C3"/>
<stop offset="1" stop-color="#4156E0"/>
</linearGradient>
<linearGradient id="paint1_linear_27226_2909" x1="104.412" y1="-7.45402" x2="56.2" y2="90.7677" gradientUnits="userSpaceOnUse">
<stop stop-color="#FFE47C"/>
<stop offset="0.526042" stop-color="#FF43C3"/>
<stop offset="1" stop-color="#4156E0"/>
</linearGradient>
<linearGradient id="paint2_linear_27226_2909" x1="104.412" y1="-7.45402" x2="56.2" y2="90.7676" gradientUnits="userSpaceOnUse">
<stop stop-color="#FFE47C"/>
<stop offset="0.526042" stop-color="#FF43C3"/>
<stop offset="1" stop-color="#4156E0"/>
</linearGradient>
<linearGradient id="paint3_linear_27226_2909" x1="63.5843" y1="27.3814" x2="37.361" y2="59.674" gradientUnits="userSpaceOnUse">
<stop stop-color="#FFE47C"/>
<stop offset="0.526042" stop-color="#FF43C3"/>
<stop offset="1" stop-color="#4156E0"/>
</linearGradient>
<clipPath id="clip0_27226_2909">
<rect width="100" height="100" fill="white"/>
</clipPath>
</defs>
</svg>