<svg version="1.1" id="Layer_1" xmlns="http://www.w3.org/2000/svg" xmlns:xlink="http://www.w3.org/1999/xlink" x="0px" y="0px"
	 width="100%" viewBox="0 0 628 628" enable-background="new 0 0 628 628" >
<path fill="#00EDBE" opacity="1.000000" stroke="none" 
	d="
M314.000000,629.000000 
	C209.333359,629.000000 105.166702,629.000000 1.000042,629.000000 
	C1.000028,419.666718 1.000028,210.333450 1.000014,1.000126 
	C210.333237,1.000084 419.666473,1.000084 628.999756,1.000042 
	C628.999878,210.333206 628.999878,419.666412 628.999939,628.999817 
	C524.166687,629.000000 419.333344,629.000000 314.000000,629.000000 
M429.244415,399.962708 
	C431.613647,393.686401 433.982880,387.410095 436.513062,380.707489 
	C434.174194,380.707489 432.191589,380.707489 430.208984,380.707489 
	C377.385895,380.707489 324.562836,380.707153 271.739746,380.707642 
	C248.244308,380.707855 224.748611,380.644684 201.253555,380.739380 
	C190.189972,380.783966 183.957199,387.174164 183.936005,398.174530 
	C183.906464,413.504852 183.908173,428.835297 183.935379,444.165619 
	C183.955338,455.418365 190.325073,461.822632 201.598480,461.825470 
	C278.416901,461.844757 355.235321,461.837280 432.053741,461.823914 
	C433.589417,461.823639 435.125092,461.646515 437.206177,461.518311 
	C426.234558,441.862823 425.071777,421.646149 429.244415,399.962708 
M238.500031,274.833893 
	C204.842026,274.833893 171.184021,274.833893 136.805389,274.833893 
	C144.204117,288.142273 147.042740,301.358704 147.063934,315.495819 
	C147.085297,329.743744 143.877258,343.005615 137.022003,355.724426 
	C138.399048,355.826508 139.059845,355.918304 139.720657,355.918365 
	C217.661636,355.926178 295.602631,355.951508 373.543549,355.898651 
	C383.556854,355.891846 390.104126,349.210693 390.147736,339.257141 
	C390.214111,324.102234 389.627014,308.921631 390.333527,293.799438 
	C390.917175,281.307068 381.934418,274.574371 371.398712,274.668549 
	C327.435516,275.061554 283.466766,274.833862 238.500031,274.833893 
M183.929977,215.499939 
	C183.930023,220.996017 183.921158,226.492126 183.931915,231.988190 
	C183.954727,243.636200 190.184753,249.989304 201.720642,249.991638 
	C278.666199,250.007202 355.611786,250.001465 432.557343,249.985733 
	C433.932495,249.985458 435.307617,249.775833 436.774841,249.656403 
	C423.626831,222.572464 423.337006,195.903763 436.770325,169.148361 
	C435.699280,169.054108 435.041382,168.945572 434.383484,168.945496 
	C356.272095,168.937286 278.160675,168.909866 200.049347,168.971237 
	C190.367157,168.978851 183.999252,175.706802 183.942963,185.520554 
	C183.887558,195.180069 183.930283,204.840134 183.929977,215.499939 
z"/>
<path fill="#141CEB" opacity="1.000000" stroke="none" 
	d="
M429.164062,400.372437 
	C425.071777,421.646149 426.234558,441.862823 437.206177,461.518311 
	C435.125092,461.646515 433.589417,461.823639 432.053741,461.823914 
	C355.235321,461.837280 278.416901,461.844757 201.598480,461.825470 
	C190.325073,461.822632 183.955338,455.418365 183.935379,444.165619 
	C183.908173,428.835297 183.906464,413.504852 183.936005,398.174530 
	C183.957199,387.174164 190.189972,380.783966 201.253555,380.739380 
	C224.748611,380.644684 248.244308,380.707855 271.739746,380.707642 
	C324.562836,380.707153 377.385895,380.707489 430.208984,380.707489 
	C432.191589,380.707489 434.174194,380.707489 436.513062,380.707489 
	C433.982880,387.410095 431.613647,393.686401 429.164062,400.372437 
z"/>
<path fill="#141BEB" opacity="1.000000" stroke="none" 
	d="
M239.000031,274.833862 
	C283.466766,274.833862 327.435516,275.061554 371.398712,274.668549 
	C381.934418,274.574371 390.917175,281.307068 390.333527,293.799438 
	C389.627014,308.921631 390.214111,324.102234 390.147736,339.257141 
	C390.104126,349.210693 383.556854,355.891846 373.543549,355.898651 
	C295.602631,355.951508 217.661636,355.926178 139.720657,355.918365 
	C139.059845,355.918304 138.399048,355.826508 137.022003,355.724426 
	C143.877258,343.005615 147.085297,329.743744 147.063934,315.495819 
	C147.042740,301.358704 144.204117,288.142273 136.805389,274.833893 
	C171.184021,274.833893 204.842026,274.833893 239.000031,274.833862 
z"/>
<path fill="#141BEB" opacity="1.000000" stroke="none" 
	d="
M183.929962,214.999954 
	C183.930283,204.840134 183.887558,195.180069 183.942963,185.520554 
	C183.999252,175.706802 190.367157,168.978851 200.049347,168.971237 
	C278.160675,168.909866 356.272095,168.937286 434.383484,168.945496 
	C435.041382,168.945572 435.699280,169.054108 436.770325,169.148361 
	C423.337006,195.903763 423.626831,222.572464 436.774841,249.656403 
	C435.307617,249.775833 433.932495,249.985458 432.557343,249.985733 
	C355.611786,250.001465 278.666199,250.007202 201.720642,249.991638 
	C190.184753,249.989304 183.954727,243.636200 183.931915,231.988190 
	C183.921158,226.492126 183.930023,220.996017 183.929962,214.999954 
z"/>
</svg>
