<svg width="256" height="256" viewBox="0 0 256 256" fill="none" xmlns="http://www.w3.org/2000/svg">
<rect width="256" height="256" rx="128" fill="#6ECF54"/>
<path fill-rule="evenodd" clip-rule="evenodd" d="M127 53C114.667 53 102.265 62.3465 93.0815 75.0458L93.0726 75.0581C83.5795 88.2503 78 104.256 78 119.237C78 131.541 83.2936 143.231 92.5312 151.769C101.752 160.29 114.159 165 127 165C139.842 165 152.248 160.29 161.469 151.769C170.706 143.231 176 131.541 176 119.237C176 104.256 170.421 88.2503 160.927 75.0581L160.919 75.0458C151.735 62.3465 139.333 53 127 53ZM102.155 119.233C102.156 107.906 106.83 96.8446 112.837 88.5371C115.823 84.4077 118.999 81.1567 121.82 79.0067C123.229 77.9331 124.454 77.2067 125.435 76.7682C125.919 76.5518 126.302 76.4245 126.583 76.354C126.721 76.3193 126.826 76.3008 126.897 76.2911C126.969 76.2815 127.002 76.2816 127 76.2816C127.002 76.2816 127.035 76.2821 127.103 76.2911C127.174 76.3008 127.279 76.3193 127.417 76.354C127.698 76.4245 128.081 76.5518 128.565 76.7682C129.546 77.2067 130.771 77.9331 132.18 79.0067C135.001 81.1567 138.177 84.4077 141.163 88.5371C147.17 96.8446 151.844 107.906 151.845 119.233C151.837 125.027 149.348 130.692 144.738 134.953C140.112 139.228 133.74 141.71 127 141.718C120.26 141.71 113.888 139.228 109.262 134.953C104.652 130.692 102.163 125.027 102.155 119.233ZM58.4794 168.011C59.8098 168.075 61.1141 168.403 62.3157 168.977C83.035 178.259 105.49 183.058 128.203 183.058C150.916 183.058 173.371 178.259 194.091 168.977C196.496 167.958 199.206 167.918 201.64 168.867C204.075 169.816 206.04 171.678 207.115 174.055C208.19 176.431 208.29 179.133 207.393 181.581C206.496 184.03 204.673 186.031 202.316 187.156C179.011 197.6 153.752 203 128.203 203C102.654 203 77.3956 197.6 54.0907 187.156C52.8647 186.637 51.7551 185.878 50.827 184.925C49.8989 183.972 49.1711 182.844 48.6862 181.606C48.2013 180.369 47.9691 179.047 48.0033 177.719C48.0375 176.391 48.3373 175.083 48.8852 173.872C49.4331 172.661 50.2181 171.571 51.194 170.667C52.1698 169.763 53.317 169.062 54.5681 168.606C55.8191 168.15 57.1489 167.948 58.4794 168.011Z" fill="#ECF8A3"/>
</svg>
