<svg width="100" height="100" viewBox="0 0 100 100" fill="none" xmlns="http://www.w3.org/2000/svg">
<g clip-path="url(#clip0_2669_2892)">
<path d="M50.1243 99.7453C77.6011 99.7453 99.8755 77.4709 99.8755 49.994C99.8755 22.5172 77.6011 0.242798 50.1243 0.242798C22.6474 0.242798 0.373047 22.5172 0.373047 49.994C0.373047 77.4709 22.6474 99.7453 50.1243 99.7453Z" fill="url(#paint0_linear_2669_2892)"/>
<path fill-rule="evenodd" clip-rule="evenodd" d="M70.7782 24.4653C71.101 24.7272 70.912 25.238 70.4961 25.238H29.7532C29.3373 25.238 29.1483 24.7272 29.4715 24.4653C35.113 19.8957 42.2991 17.1583 50.1244 17.1583C57.9503 17.1583 65.1359 19.8957 70.7782 24.4653Z" fill="white"/>
<path fill-rule="evenodd" clip-rule="evenodd" d="M37.3514 58.9343C37.1165 58.5995 36.7382 58.3885 36.329 58.3885H19.15C18.7564 58.3885 18.4695 58.7622 18.5789 59.1403C22.5397 72.8249 35.1637 82.8298 50.1244 82.8298C65.0856 82.8298 77.7094 72.8249 81.6701 59.1403C81.7796 58.7622 81.4925 58.3885 81.099 58.3885H63.9204C63.5109 58.3885 63.1328 58.5995 62.898 58.9343C60.0781 62.9552 55.4084 65.5836 50.1249 65.5836C44.8409 65.5836 40.171 62.9552 37.3514 58.9343Z" fill="white"/>
<path fill-rule="evenodd" clip-rule="evenodd" d="M61.6751 39.5238C61.9124 39.7857 62.2462 39.9434 62.5995 39.9434H80.5701C80.9776 39.9434 81.2666 39.547 81.1318 39.1629C79.8636 35.5323 77.9756 32.1925 75.595 29.2702C75.3716 28.9959 75.0348 28.8406 74.6806 28.8406H25.5676C25.2138 28.8406 24.8771 28.9959 24.6536 29.2702C22.2729 32.1925 20.385 35.5323 19.1168 39.1629C18.9825 39.547 19.2714 39.9434 19.6783 39.9434H37.6491C38.0025 39.9434 38.3362 39.7857 38.5737 39.5238C41.426 36.3793 45.5445 34.4047 50.1243 34.4047C54.7039 34.4047 58.8228 36.3793 61.6751 39.5238Z" fill="white"/>
<path fill-rule="evenodd" clip-rule="evenodd" d="M65.5801 54.7935C65.2747 54.7935 65.0572 54.4955 65.1398 54.201C65.5145 52.8617 65.7145 51.4497 65.7145 49.991C65.7145 47.9384 65.3179 45.9783 64.5975 44.1834C64.4752 43.8796 64.6941 43.5406 65.0209 43.5406H81.9582C82.1727 43.5406 82.3582 43.6921 82.3975 43.9031C82.7672 45.8761 82.9607 47.9113 82.9607 49.9915C82.9607 51.4895 82.8602 52.9637 82.6667 54.408C82.6364 54.6293 82.4468 54.7935 82.2234 54.7935H65.5801ZM35.1092 54.201C35.1915 54.4955 34.9747 54.7935 34.6691 54.7935H18.0256C17.8023 54.7935 17.6123 54.6293 17.5826 54.408C17.3884 52.9637 17.2881 51.4895 17.2881 49.9915C17.2881 47.9113 17.4816 45.8761 17.8515 43.9031C17.891 43.6921 18.0762 43.5406 18.2909 43.5406H35.2277C35.5551 43.5406 35.7739 43.8796 35.6519 44.1834C34.9309 45.9783 34.5342 47.9384 34.5342 49.991C34.5342 51.4497 34.7345 52.8617 35.1092 54.201Z" fill="white"/>
</g>
<defs>
<linearGradient id="paint0_linear_2669_2892" x1="50.1243" y1="0.242938" x2="50.1243" y2="99.7453" gradientUnits="userSpaceOnUse">
<stop stop-color="#C750FF"/>
<stop offset="1" stop-color="#5800E8"/>
</linearGradient>
<clipPath id="clip0_2669_2892">
<rect width="100" height="100" fill="white"/>
</clipPath>
</defs>
</svg>
