<svg width="100" height="100" viewBox="0 0 100 100" fill="none" xmlns="http://www.w3.org/2000/svg">
<rect width="100" height="100" fill="#FF5A19"/>
<g clip-path="url(#clip0_1808_41668)">
<path fill-rule="evenodd" clip-rule="evenodd" d="M20.4766 74.5829L20.5039 79.4967H47.5024V20.5312H20.5039L20.4766 25.445C32.6901 25.445 42.5886 35.3436 42.5886 47.5571V52.4709C42.5886 64.6844 32.6901 74.5829 20.4766 74.5829Z" fill="#111111"/>
<path fill-rule="evenodd" clip-rule="evenodd" d="M20.4766 50.014C20.4766 57.5949 23.3375 64.5069 28.0383 69.7319C28.7891 69.3498 29.5152 68.9266 30.2113 68.4598C25.6961 63.6307 22.9335 57.1444 22.9335 50.014C22.9335 42.8808 25.6961 36.3946 30.2141 31.5654C29.5152 31.1014 28.7891 30.6782 28.0383 30.296C23.3375 35.521 20.4766 42.4331 20.4766 50.014Z" fill="#111111"/>
<path fill-rule="evenodd" clip-rule="evenodd" d="M79.442 74.5829L79.4147 79.4967H52.4162V20.5312H79.4147L79.442 25.445C67.2285 25.445 57.33 35.3436 57.33 47.5571V52.4709C57.33 64.6844 67.2285 74.5829 79.442 74.5829Z" fill="#111111"/>
<path fill-rule="evenodd" clip-rule="evenodd" d="M79.442 50.014C79.442 57.5949 76.5811 64.5069 71.8803 69.7319C71.1295 69.3498 70.4034 68.9266 69.7073 68.4598C74.2225 63.6307 76.9851 57.1444 76.9851 50.014C76.9851 42.8835 74.2225 36.3946 69.7045 31.5654C70.4034 31.1014 71.1295 30.6782 71.8803 30.296C76.5811 35.521 79.442 42.4331 79.442 50.014Z" fill="#111111"/>
</g>
<defs>
<clipPath id="clip0_1808_41668">
<rect width="58.9655" height="58.9655" fill="white" transform="translate(20.5996 20.5996)"/>
</clipPath>
</defs>
</svg>
