<?xml version="1.0" encoding="UTF-8" standalone="no"?>
<svg
   width="20"
   height="20"
   fill="none"
   version="1.1"
   id="svg3495"
   xmlns="http://www.w3.org/2000/svg"
   xmlns:svg="http://www.w3.org/2000/svg">
  <g
     id="g3480"
     transform="matrix(6.7795671,0,0,7.079395,-636.28694,-748.21949)">
    <path
       d="m 95.328644,105.68975 c 0.850452,0 1.509625,0.67588 1.473613,1.47362 -0.03444,0.76068 -0.693357,1.35148 -1.473613,1.35148 -0.780255,0 -1.439166,-0.59106 -1.473612,-1.35148 -0.03601,-0.79774 0.6229,-1.47362 1.473612,-1.47362 z"
       fill="#000000"
       id="path46799"
       style="stroke-width:0.0887654;stroke-dasharray:none;paint-order:markers stroke fill" />
    <path
       d="m 95.401712,107.42536 v 0.0968 c 0,0.0133 0.0078,0.0264 0.02061,0.0318 l 0.28679,0.13492 c 0.01201,0.005 0.01905,0.017 0.01879,0.029 l -5.22e-4,0.0337 c 0,0.012 -0.0073,0.0235 -0.01957,0.0287 l -0.351767,0.1631 c -0.01774,0.009 -0.03862,0.009 -0.05637,0 l -0.351766,-0.1631 c -0.01227,-0.005 -0.01931,-0.017 -0.01957,-0.0287 l -5.23e-4,-0.0337 c 0,-0.012 0.0068,-0.0235 0.01879,-0.029 l 0.28679,-0.13492 c 0.01279,-0.006 0.02087,-0.0188 0.02087,-0.0318 v -0.0968 c 0,-0.0123 -0.01018,-0.024 -0.02374,-0.0251 -0.04228,-0.005 -0.07672,-0.0117 -0.102555,-0.0201 -0.05349,-0.0162 -0.09473,-0.0585 -0.109863,-0.11116 l -0.224681,-0.78104 -0.0057,-0.0183 c -0.0013,-0.0744 0.240862,-0.13413 0.539916,-0.13413 0.299055,0 0.54122,0.0598 0.539916,0.13413 l -0.0057,0.0183 -0.224683,0.78104 c -0.01461,0.0519 -0.05584,0.0939 -0.109861,0.11116 -0.02636,0.009 -0.06028,0.0157 -0.102556,0.0201 -0.01279,10e-4 -0.02349,0.0128 -0.02349,0.0251 z"
       fill="url(#paint0_linear_34_374)"
       id="path46801"
       style="fill:#0bce0d;stroke-width:0.0887654;stroke-dasharray:none;paint-order:markers stroke fill;fill-opacity:1" />
  </g>
  <defs
     id="defs3493">
    <clipPath
       id="a">
      <path
         fill="#fff"
         d="M0 0h20v20H0z"
         id="path3490" />
    </clipPath>
    <linearGradient
       id="paint0_linear_34_374"
       x1="137.92"
       y1="114.16"
       x2="137.92"
       y2="170.87"
       gradientUnits="userSpaceOnUse"
       gradientTransform="matrix(0.02609549,0,0,0.02609549,91.729034,103.41501)">
      <stop
         stop-color="#0BCA0D"
         id="stop46811" />
      <stop
         offset="1"
         stop-color="#035B0D"
         id="stop46813" />
    </linearGradient>
  </defs>
</svg>
