<?xml version="1.0" encoding="UTF-8" standalone="no"?>
<svg
   width="32"
   height="32"
   viewBox="0 0 32 32"
   fill="none"
   version="1.1"
   id="svg6213"
   xmlns="http://www.w3.org/2000/svg"
   xmlns:svg="http://www.w3.org/2000/svg">
  <rect
     width="32"
     height="32"
     rx="16"
     fill="#040404"
     id="rect6188" />
  <path
     fill-rule="evenodd"
     clip-rule="evenodd"
     d="M21.334 17.6579C17.4664 17.6579 14.3319 14.5243 14.3319 10.6619C14.3319 8.63968 12.7006 7 10.666 7C8.64969 7 7 8.63968 7 10.6619C7 12.6842 8.63133 14.3239 10.666 14.3239H10.6843C14.5336 14.3239 17.6497 17.4575 17.668 21.3198V21.3381C17.668 23.3603 19.2993 25 21.334 25C23.3687 25 25 23.3603 25 21.3381C24.9816 19.2976 23.3503 17.6579 21.334 17.6579Z"
     fill="url(#paint0_linear_2004_577)"
     id="path6190"
     style="fill:#0bce0d;fill-opacity:1" />
  <path
     fill-rule="evenodd"
     clip-rule="evenodd"
     d="M10.6844 17.6579C8.66809 17.6579 7.0184 19.2976 7.0184 21.3198C7.0184 23.3421 8.64973 24.9818 10.6844 24.9818C12.719 24.9818 14.3504 23.3421 14.3504 21.3198C14.332 19.2976 12.7007 17.6579 10.6844 17.6579Z"
     fill="url(#paint1_linear_2004_577)"
     id="path6192"
     style="fill:#0bce0d;fill-opacity:1" />
  <path
     fill-rule="evenodd"
     clip-rule="evenodd"
     d="M21.334 7C23.3587 7 25 8.63947 25 10.6619C25 12.6843 23.3587 14.3239 21.334 14.3239C19.3093 14.3239 17.668 12.6843 17.668 10.6619C17.668 8.63947 19.3093 7 21.334 7Z"
     fill="url(#paint2_linear_2004_577)"
     id="path6194"
     style="fill:#0bce0d;fill-opacity:1" />
  <defs
     id="defs6211">
    <linearGradient
       id="paint0_linear_2004_577"
       x1="16"
       y1="7"
       x2="16"
       y2="25"
       gradientUnits="userSpaceOnUse">
      <stop
         stop-color="#0BCE0D"
         id="stop6196" />
      <stop
         offset="1"
         stop-color="#035A0D"
         id="stop6198" />
    </linearGradient>
    <linearGradient
       id="paint1_linear_2004_577"
       x1="16"
       y1="7"
       x2="16"
       y2="25"
       gradientUnits="userSpaceOnUse">
      <stop
         stop-color="#0BCE0D"
         id="stop6201" />
      <stop
         offset="1"
         stop-color="#035A0D"
         id="stop6203" />
    </linearGradient>
    <linearGradient
       id="paint2_linear_2004_577"
       x1="16"
       y1="7"
       x2="16"
       y2="25"
       gradientUnits="userSpaceOnUse">
      <stop
         stop-color="#0BCE0D"
         id="stop6206" />
      <stop
         offset="1"
         stop-color="#035A0D"
         id="stop6208" />
    </linearGradient>
  </defs>
</svg>
