<?xml version="1.0" encoding="UTF-8"?><svg xmlns="http://www.w3.org/2000/svg" viewBox="0 0 741.6 741.6"><defs><style>.cls-1{fill:#00ebab;}</style></defs><g id="Layer_1"><g id="Layer_1-2"><g id="Layer_1-3"><g id="Layer_1-2"><circle class="cls-1" cx="370.8" cy="370.8" r="370.8"/></g></g></g><g id="Isolation_Mode"><path d="M615.14,368.47c0,160.94-98.78,212.51-151.19,166.89-42.65-37.45-55.38-116.71-119.78-124.98-81.59-9.76-89.02,98.78-142.92,98.78-62.91,0-74.8-90.6-74.8-137.71s13.47-112.99,66.63-112.99c62.07,0,65.88,93.57,143.66,88.28,77.13-5.2,78.61-102.49,129.44-143.66,44.14-36.7,148.96,2.23,148.96,165.4Z"/></g></g><g id="Isolation_Mode-2"><polygon class="cls-1" points="479.22 319.9 479.22 401.67 498.2 401.67 498.2 340.35 520.1 340.35 520.1 401.67 539.08 401.67 539.08 319.9 560.99 319.9 560.99 403.13 540.54 403.13 540.54 423.57 477.76 423.57 477.76 403.13 457.32 403.13 457.32 319.9 479.22 319.9"/></g></svg>